<svg fill="none" viewBox="0 0 36 36" height="36" width="36" xmlns="http://www.w3.org/2000/svg">
                                            <g clip-path="url(#clip0_1_3471)">
                                                <path fill="#111111" d="M10.6279 13.1641H19.0528V25.4691H10.6279V13.1641Z"></path>
                                                <path fill="#111111" d="M14.8402 11.0577C16.8725 11.0577 18.5261 9.40422 18.5261 7.37179C18.5261 6.38714 18.1426 5.46152 17.4464 4.76542L14.8402 2.15918L12.2339 4.76542C11.5377 5.46166 11.1543 6.38728 11.1543 7.37179C11.1543 9.40422 12.8077 11.0577 14.8402 11.0577Z"></path>
                                                <path fill="#111111" d="M29.6541 23.3628C27.3313 23.3628 25.4416 25.2525 25.4416 27.5752H2.13281V30.7346C2.13281 33.638 4.49494 36.0001 7.39836 36.0001H22.2823C25.1857 36.0001 27.5479 33.638 27.5479 30.7346V27.5752C27.5479 26.4139 28.4927 25.469 29.6541 25.469C30.8155 25.469 31.7603 26.4139 31.7603 27.5752C31.7603 28.7366 30.8155 29.6815 29.6541 29.6815V31.7877C31.9768 31.7877 33.8665 29.898 33.8665 27.5752C33.8665 25.2525 31.9768 23.3628 29.6541 23.3628Z"></path>
                                                <path fill="#111111" d="M6.94238 4.2124H9.0486V6.31862H6.94238V4.2124Z"></path>
                                                <path fill="#111111" d="M9.04785 0H11.1541V2.10622H9.04785V0Z"></path>
                                                <path fill="#111111" d="M19.5791 2.10645H21.6853V4.21267H19.5791V2.10645Z"></path>
                                            </g>
                                            <defs>
                                                <clipPath id="clip0_1_3471">
                                                    <rect fill="white" height="36" width="36"></rect>
                                                </clipPath>
                                            </defs>
                                        </svg>