<svg fill="none" viewBox="0 0 36 36" height="36" width="36" xmlns="http://www.w3.org/2000/svg">
                                            <g clip-path="url(#clip0_1_3494)">
                                                <path fill="#111111" d="M5.52148 19.0188V29.144C5.52148 29.9009 4.90774 30.5147 4.15072 30.5147C3.39371 30.5147 2.77997 29.901 2.77997 29.144V21.562L2.12471 21.9932C1.89246 22.1458 1.63078 22.2188 1.37242 22.2188C0.926644 22.2188 0.489637 22.0019 0.225937 21.6016C-0.190369 20.9692 -0.0150376 20.1191 0.617494 19.7028L3.39709 17.8736C3.39737 17.8741 3.39759 17.8744 3.39787 17.8749C3.6141 17.7323 3.87234 17.6481 4.15072 17.6481C4.90774 17.6481 5.52148 18.2618 5.52148 19.0188ZM15.8303 21.8894V26.2733C15.8303 28.6119 13.9275 30.5147 11.5889 30.5147C9.25041 30.5147 7.34758 28.6119 7.34758 26.2733V21.8894C7.34758 19.5509 9.25041 17.6481 11.5889 17.6481C13.9275 17.6481 15.8303 19.5509 15.8303 21.8894ZM13.0889 21.8894C13.0889 21.0622 12.4162 20.3895 11.5889 20.3895C10.7617 20.3895 10.089 21.0622 10.089 21.8894V26.2733C10.089 27.1006 10.7617 27.7732 11.5889 27.7732C12.4162 27.7732 13.0889 27.1006 13.0889 26.2733V21.8894ZM26.1392 21.8894V26.2733C26.1392 28.6119 24.2364 30.5147 21.8978 30.5147C19.5593 30.5147 17.6565 28.6119 17.6565 26.2733V21.8894C17.6565 19.5509 19.5593 17.6481 21.8978 17.6481C24.2364 17.6481 26.1392 19.5509 26.1392 21.8894ZM23.3977 21.8894C23.3977 21.0622 22.7251 20.3895 21.8978 20.3895C21.0706 20.3895 20.3979 21.0622 20.3979 21.8894V26.2733C20.3979 27.1006 21.0706 27.7732 21.8978 27.7732C22.7251 27.7732 23.3977 27.1006 23.3977 26.2733V21.8894ZM31.0837 29.6647L35.2447 19.5395C35.5325 18.8394 35.1985 18.0389 34.4978 17.7512C33.7984 17.4627 32.9965 17.798 32.7094 18.4981L28.5484 28.6233C28.2606 29.3234 28.5946 30.1239 29.2953 30.4116C29.4653 30.4819 29.642 30.5154 29.8153 30.5154C30.3548 30.5154 30.8662 30.1948 31.0837 29.6647ZM30.5342 19.6547C30.5342 20.4117 29.9205 21.0254 29.1634 21.0254C28.4064 21.0254 27.7927 20.4117 27.7927 19.6547C27.7927 18.8977 28.4064 18.284 29.1634 18.284C29.9205 18.284 30.5342 18.8977 30.5342 19.6547ZM36 28.5082C36 29.2653 35.3863 29.8789 34.6293 29.8789C33.8723 29.8789 33.2586 29.2653 33.2586 28.5082C33.2586 27.7512 33.8723 27.1375 34.6293 27.1375C35.3863 27.1375 36 27.7512 36 28.5082ZM23.1017 7.60361C22.5874 7.28467 21.3531 7.3979 20.1805 8.00473C21.6513 10.4836 21.2708 13.6413 20.2216 15.2253C21.3222 14.9579 22.6079 14.2276 23.369 12.983C24.6547 10.8847 23.9553 8.12814 23.1017 7.60361ZM19.2547 8.44697C17.6605 5.83443 14.1942 5.05267 13.1348 5.70067C12.0753 6.35897 11.2114 9.78414 12.8056 12.3967C14.2045 14.6904 17.033 15.575 18.4216 15.3178L15.5828 10.6893C15.4388 10.4527 15.5107 10.1338 15.7576 9.98979C15.9941 9.83555 16.313 9.91785 16.4673 10.1544L19.2959 14.7727C20.1599 13.6413 20.6537 10.7304 19.2547 8.44697Z"></path>
                                            </g>
                                            <defs>
                                                <clipPath id="clip0_1_3494">
                                                    <rect fill="white" height="36" width="36"></rect>
                                                </clipPath>
                                            </defs>
                                        </svg>