<svg fill="none" viewBox="0 0 36 36" height="36" width="36" xmlns="http://www.w3.org/2000/svg">
                                            <path fill="#111111" d="M14.0625 24.0625C12.2468 24.4889 10.7449 25.2022 9.76951 26.0718C8.90551 26.8424 8.4375 27.7424 8.4375 28.6874C8.4375 29.845 9.1485 30.9419 10.4209 31.8093C12.1309 32.9759 14.8882 33.7499 18 33.7499C21.1117 33.7499 23.8691 32.9759 25.5791 31.8093C26.8515 30.9419 27.5625 29.845 27.5625 28.6874C27.5625 27.7424 27.0945 26.8424 26.2305 26.0718C25.2551 25.2022 23.7533 24.4889 21.9375 24.0625V28.1249C21.9375 28.7212 21.7001 29.2938 21.2783 29.7157C20.8564 30.1375 20.2837 30.3749 19.6875 30.3749C18.7076 30.3749 17.2924 30.3749 16.3125 30.3749C15.7162 30.3749 15.1436 30.1375 14.7217 29.7157C14.2999 29.2938 14.0625 28.7212 14.0625 28.1249V24.0625ZM17.4375 10.0765V11.2499H17.4353C17.4364 11.2679 17.4375 11.287 17.4375 11.3062V12.6494C17.4375 12.8137 17.4971 12.9712 17.6017 13.087L17.7458 13.2445C18.3139 13.8712 18.4027 14.851 17.9561 15.5868L17.343 16.5993C17.1709 16.8839 16.821 16.9604 16.5634 16.7714C16.3046 16.5813 16.2349 16.1965 16.407 15.913L17.0201 14.9005C17.1686 14.6553 17.1394 14.329 16.9504 14.1198L16.8064 13.9623C16.4902 13.6147 16.3125 13.1422 16.3125 12.6494V11.3062C16.3125 11.287 16.3136 11.2679 16.3147 11.2499H16.3125C15.8647 11.2499 15.4361 11.4277 15.1189 11.7438C14.8027 12.061 14.625 12.4897 14.625 12.9374V28.1249C14.625 28.5727 14.8027 29.0013 15.1189 29.3185C15.4361 29.6347 15.8647 29.8124 16.3125 29.8124H19.6875C20.1353 29.8124 20.5639 29.6347 20.8811 29.3185C21.1973 29.0013 21.375 28.5727 21.375 28.1249C21.375 24.9738 21.375 16.0885 21.375 12.9374C21.375 12.4897 21.1973 12.061 20.8811 11.7438C20.5639 11.4277 20.1353 11.2499 19.6875 11.2499H18.5625V10.0777C19.0496 9.99103 19.449 9.78853 19.8135 9.48478C20.9059 8.57803 20.9846 7.50253 20.682 6.42478C20.511 5.81278 20.2061 5.20078 19.9294 4.63716C19.6729 4.11291 19.3567 3.60441 19.0406 3.09816C18.9225 2.90916 18.7841 2.72578 18.621 2.55703C18.5591 2.49403 18.4444 2.37928 18.3555 2.32641C18.2644 2.27241 18.1732 2.24653 18.0956 2.23753C17.8717 2.21278 17.6805 2.28591 17.5376 2.49291C17.3936 2.69991 17.2912 3.02166 17.1776 3.42216C16.9852 4.09828 16.6984 5.06578 15.5486 5.87691C15.1301 6.17053 14.9074 6.71503 14.9569 7.35966C15.0412 8.43853 15.9086 9.80541 17.4375 10.0765Z" clip-rule="evenodd" fill-rule="evenodd"></path>
                                        </svg>