<svg fill="none" viewBox="0 0 36 36" height="36" width="36" xmlns="http://www.w3.org/2000/svg">
                                            <path fill="#111111" d="M10.4387 23.2603L6.88323 29.9103C6.83405 30.0055 6.813 30.1128 6.82256 30.2195C6.83212 30.3262 6.87189 30.428 6.93721 30.5129C7.00252 30.5979 7.09069 30.6624 7.19137 30.6991C7.29206 30.7357 7.4011 30.7429 7.50573 30.7198L11.8182 29.708L14.1512 33.4856C14.2086 33.5769 14.291 33.6498 14.3887 33.6956C14.4863 33.7414 14.5951 33.7582 14.702 33.744C14.8089 33.7298 14.9095 33.6852 14.9918 33.6154C15.0741 33.5457 15.1346 33.4538 15.1662 33.3507L17.4263 25.863C14.8835 25.7411 12.4416 24.8315 10.4387 23.2603Z"></path>
                                            <path fill="#111111" d="M29.1807 29.9106L25.6252 23.2549C23.625 24.8316 21.1819 25.7436 18.6377 25.8633L20.8977 33.3509C20.9304 33.4531 20.9915 33.5439 21.0738 33.6127C21.156 33.6815 21.2562 33.7255 21.3625 33.7397C21.4689 33.7538 21.577 33.7375 21.6744 33.6925C21.7719 33.6476 21.8545 33.5759 21.9128 33.4858L24.2457 29.7083L28.5582 30.7201C28.6629 30.7434 28.772 30.7364 28.8729 30.6998C28.9737 30.6632 29.0619 30.5986 29.1273 30.5136C29.1927 30.4286 29.2324 30.3267 29.2419 30.2199C29.2513 30.1131 29.2301 30.0058 29.1807 29.9106Z"></path>
                                            <path fill="#111111" d="M16.4708 9.06104V11.1087C16.4539 11.6355 16.2668 12.1428 15.9375 12.5544H20.103L19.9233 12.2787C19.6932 11.9318 19.5702 11.5249 19.5696 11.1087V9.06104H16.4708Z"></path>
                                            <path fill="#111111" d="M13.7593 15.8225C13.6259 16.0277 13.5499 16.265 13.5394 16.5096C13.5288 16.7541 13.584 16.9971 13.6992 17.2131C13.8145 17.429 13.9855 17.6102 14.1945 17.7376C14.4035 17.865 14.6429 17.9341 14.8877 17.9376H21.1526C21.3974 17.9341 21.6367 17.865 21.8457 17.7376C22.0548 17.6101 22.2258 17.429 22.341 17.213C22.4562 16.997 22.5114 16.7541 22.5009 16.5095C22.4903 16.2649 22.4143 16.0277 22.2809 15.8224L20.8551 13.6792H15.1851L13.7593 15.8225ZM20.5351 16.0137C20.6827 16.016 20.8236 16.0763 20.9272 16.1815C21.0309 16.2868 21.089 16.4286 21.089 16.5763C21.089 16.724 21.0309 16.8657 20.9272 16.971C20.8236 17.0762 20.6827 17.1365 20.5351 17.1388C20.3873 17.1366 20.2464 17.0763 20.1428 16.9711C20.0391 16.8658 19.981 16.724 19.981 16.5763C19.981 16.4285 20.0391 16.2867 20.1427 16.1815C20.2464 16.0762 20.3873 16.016 20.5351 16.0137ZM17.9191 14.4724C18.0666 14.4749 18.2073 14.5352 18.3108 14.6404C18.4143 14.7457 18.4723 14.8873 18.4723 15.0349C18.4723 15.1825 18.4143 15.3242 18.3108 15.4294C18.2073 15.5346 18.0666 15.595 17.9191 15.5975C17.7715 15.595 17.6307 15.5347 17.5272 15.4295C17.4237 15.3242 17.3657 15.1825 17.3657 15.0349C17.3657 14.8873 17.4237 14.7456 17.5272 14.6404C17.6307 14.5351 17.7715 14.4748 17.9191 14.4724ZM16.0553 16.0587C16.0534 16.2064 15.9934 16.3474 15.8884 16.4511C15.7833 16.5549 15.6416 16.613 15.4939 16.613C15.3462 16.613 15.2045 16.5549 15.0994 16.4511C14.9944 16.3474 14.9344 16.2064 14.9325 16.0587C14.9344 15.9111 14.9944 15.7701 15.0994 15.6664C15.2045 15.5626 15.3462 15.5044 15.4939 15.5044C15.6416 15.5044 15.7833 15.5626 15.8884 15.6664C15.9934 15.7701 16.0534 15.9111 16.0553 16.0587Z"></path>
                                            <path fill="#111111" d="M25.5651 21.8583L22.427 18.7138C22.0419 18.944 21.6013 19.0646 21.1527 19.0626H14.8877C14.4404 19.0563 14.003 18.9302 13.621 18.6973C13.2391 18.4645 12.9266 18.1334 12.7162 17.7387C12.5058 17.3439 12.4051 16.9 12.4247 16.4531C12.4442 16.0062 12.5833 15.5727 12.8275 15.1979L15.1852 11.654C15.2104 11.6112 15.2311 11.566 15.2469 11.519L9.73985 6.00049C0.531314 16.531 14.5281 31.104 25.5651 21.8583Z"></path>
                                            <path fill="#111111" d="M15.3484 9.06081C15.1992 9.06304 15.0552 9.00591 14.9481 8.90199C14.841 8.79807 14.7796 8.65587 14.7774 8.50668C14.7752 8.35748 14.8323 8.21352 14.9362 8.10645C15.0402 7.99938 15.1824 7.93797 15.3316 7.93575H20.7095C20.8587 7.93798 21.0009 7.99939 21.1048 8.10646C21.2087 8.21354 21.2658 8.35751 21.2636 8.5067C21.2614 8.6559 21.1999 8.79809 21.0929 8.90201C20.9858 9.00592 20.8418 9.06305 20.6926 9.06081V11.1085C20.6921 11.3024 20.7487 11.4921 20.8554 11.6541L23.2132 15.198C23.4853 15.5992 23.6321 16.0721 23.6351 16.5568C23.6381 17.0415 23.4972 17.5162 23.2301 17.9207L26.3625 21.0597C30.3988 16.5763 30.2641 9.11704 25.324 4.97679C20.4344 0.87029 14.3716 1.77597 10.543 5.21304L15.3483 10.0283L15.3484 9.06081Z"></path>
                                        </svg>